<svg width="33" height="32" viewBox="0 0 33 32" fill="none" xmlns="http://www.w3.org/2000/svg">
<ellipse cx="16.3393" cy="15.7665" rx="16.3393" ry="15.7665" fill="#E3B4A8"/>
<ellipse cx="16.3394" cy="8.77965" rx="3.65231" ry="3.52428" fill="white"/>
<path d="M11.0987 25.2261L8.66123 23.6678C8.25499 23.3681 7.53999 22.493 7.92999 21.3902C8.41749 20.0116 9.14873 15.876 9.33154 15.6362C9.51435 15.3965 10.3675 13.4785 12.5003 13.4785C14.2065 13.4785 15.7706 13.4785 16.3393 13.4785" stroke="white"/>
<path d="M21.4835 25.2261L23.9927 23.6678C24.4109 23.3681 25.1469 22.493 24.7454 21.3902C24.2436 20.0116 23.4908 15.876 23.3027 15.6362C23.1145 15.3965 22.2363 13.4785 20.0407 13.4785C18.2843 13.4785 16.9249 13.4785 16.3394 13.4785" stroke="white"/>
<path fill-rule="evenodd" clip-rule="evenodd" d="M15.2505 19.9617C15.2511 19.9413 15.2515 19.9209 15.2515 19.9004C15.2515 18.8309 14.3529 17.9639 13.2445 17.9639C12.1361 17.9639 11.2376 18.8309 11.2376 19.9004C11.2376 20.97 12.1361 21.837 13.2445 21.837C13.5382 21.837 13.8171 21.7762 14.0684 21.6668C14.0766 21.6797 14.0884 21.7014 14.1041 21.7304C14.271 22.0382 14.8799 23.1612 16.3177 23.1078C17.9483 23.0473 20.9587 22.2606 21.5232 21.1712L17.6975 19.6583C17.2376 19.4969 16.1045 19.3315 15.2515 19.9609C15.2512 19.9611 15.2508 19.9614 15.2505 19.9617Z" fill="white"/>
</svg>
