<svg width="34" height="32" viewBox="0 0 34 32" fill="none" xmlns="http://www.w3.org/2000/svg">
<ellipse cx="17.1815" cy="15.7665" rx="16.3393" ry="15.7665" fill="#E3B4A8"/>
<path d="M23.5443 12.9286C23.5443 16.293 20.7127 19.0505 17.1818 19.0505C13.651 19.0505 10.8193 16.293 10.8193 12.9286C10.8193 9.56419 13.651 6.80664 17.1818 6.80664C20.7127 6.80664 23.5443 9.56419 23.5443 12.9286Z" stroke="white"/>
<rect x="13.5104" y="19.8008" width="7.34285" height="1.39198" rx="0.695991" stroke="white" stroke-width="0.5"/>
<rect x="13.5104" y="21.6924" width="7.34285" height="1.39198" rx="0.695991" stroke="white" stroke-width="0.5"/>
<rect x="13.5104" y="23.5845" width="7.34285" height="1.39198" rx="0.695991" stroke="white" stroke-width="0.5"/>
<path d="M23.064 16.2397L20.6131 20.0237H13.7506L11.2997 16.2397H23.064Z" fill="white"/>
<path d="M16.2014 11.0365L15.8542 10.6767L15.4814 11.0365L15.8542 11.3963L16.2014 11.0365ZM18.1621 12.9285L18.5093 13.2883L18.8822 12.9285L18.5093 12.5687L18.1621 12.9285ZM17.8149 8.78473L15.8542 10.6767L16.5486 11.3963L18.5093 9.50433L17.8149 8.78473ZM15.8542 11.3963L17.8149 13.2883L18.5093 12.5687L16.5486 10.6767L15.8542 11.3963ZM17.8149 12.5687L15.8542 14.4607L16.5486 15.1803L18.5093 13.2883L17.8149 12.5687Z" fill="white"/>
</svg>
