<svg width="14" height="20" viewBox="0 0 14 20" fill="none" xmlns="http://www.w3.org/2000/svg">
<circle cx="6.76671" cy="6.92858" r="6.12194" stroke="white"/>
<rect x="3.23279" y="13.8008" width="7.06793" height="1.39198" rx="0.695991" stroke="white" stroke-width="0.5"/>
<rect x="3.23279" y="15.6924" width="7.06793" height="1.39198" rx="0.695991" stroke="white" stroke-width="0.5"/>
<rect x="3.23279" y="17.5845" width="7.06793" height="1.39198" rx="0.695991" stroke="white" stroke-width="0.5"/>
<path d="M12.4427 10.2397L10.0777 14.0237H3.4558L1.09082 10.2397H12.4427Z" fill="white"/>
<path d="M5.82068 5.03651L5.46713 4.68296L5.11357 5.03651L5.46713 5.39007L5.82068 5.03651ZM7.71266 6.9285L8.06622 7.28205L8.41977 6.9285L8.06622 6.57494L7.71266 6.9285ZM7.35911 2.79098L5.46713 4.68296L6.17423 5.39007L8.06622 3.49808L7.35911 2.79098ZM5.46713 5.39007L7.35911 7.28205L8.06622 6.57494L6.17423 4.68296L5.46713 5.39007ZM7.35911 6.57494L5.46713 8.46693L6.17423 9.17403L8.06622 7.28205L7.35911 6.57494Z" fill="white"/>
</svg>
