<svg width="31" height="34" viewBox="0 0 31 34" fill="none" xmlns="http://www.w3.org/2000/svg">
<path d="M8.27181 15.1057L4.94254 15.1551C3.26629 16.8313 3.26628 21.6638 5.02224 23.4197C5.02224 23.4197 7.99723 23.4063 8.3036 23.37C8.60996 23.3337 8.97531 23.5183 9.11968 23.615C11.0559 24.203 15.1681 25.3997 16.1268 25.4828C17.0856 25.5659 19.97 24.6783 21.2924 24.2241L28.7637 20.3221C29.1447 19.9894 29.8619 19.0696 29.6826 18.0527C29.5032 17.0359 28.3242 16.7261 27.7571 16.6983L23.7394 17.6773C23.305 18.6133 21.921 19.1581 21.2832 19.3135L18.4575 19.4382C17.4436 19.4553 15.4001 19.3122 15.3379 18.6027C15.2756 17.8933 15.9953 17.8167 16.3629 17.8671C17.7375 18.052 20.7541 18.2799 21.8234 17.7123C23.16 17.0027 22.9828 15.5882 22.5943 14.819C22.2836 14.2037 21.2005 14.1549 20.6978 14.2074C18.3255 14.0716 13.408 13.7606 12.7171 13.6026C12.0262 13.4446 9.46568 14.5388 8.27181 15.1057Z" fill="white"/>
<mask id="path-2-inside-1" fill="white">
<path fill-rule="evenodd" clip-rule="evenodd" d="M15.317 1.72334C15.31 1.71617 15.3029 1.70902 15.2958 1.70189C13.9804 0.38648 11.8477 0.38648 10.5323 1.70189C9.21688 3.01726 9.21685 5.14989 10.5322 6.4653L10.5321 6.4654L10.5537 6.48706L10.5342 6.50659L15.2977 11.2701L20.0265 6.5413C20.0383 6.52984 20.0501 6.51827 20.0617 6.5066C21.3771 5.19119 21.3771 3.05849 20.0617 1.74308C18.7527 0.434111 16.6345 0.427707 15.3176 1.72387L15.317 1.72334Z"/>
</mask>
<path d="M15.317 1.72334L13.9031 3.13787L13.8968 3.1315L13.8904 3.12507L15.317 1.72334ZM15.2958 1.70189L16.71 0.287675L16.71 0.287681L15.2958 1.70189ZM10.5323 1.70189L11.9465 3.1161L11.9465 3.1161L10.5323 1.70189ZM10.5322 6.4653L11.9464 5.05115L13.3569 6.46177L11.95 7.87591L10.5322 6.4653ZM10.5321 6.4654L9.11785 7.87961L7.70723 6.46899L9.11425 5.05479L10.5321 6.4654ZM10.5537 6.48706L11.9679 5.07285L13.3821 6.48704L11.968 7.90126L10.5537 6.48706ZM10.5342 6.50659L9.11998 7.92081L7.70578 6.50661L9.11996 5.0924L10.5342 6.50659ZM15.2977 11.2701L16.7119 12.6843L15.2977 14.0985L13.8835 12.6843L15.2977 11.2701ZM20.0265 6.5413L18.6123 5.12708L18.6225 5.11691L18.6328 5.10688L20.0265 6.5413ZM20.0617 6.5066L18.6475 5.0924L18.6475 5.09239L20.0617 6.5066ZM20.0617 1.74308L18.6475 3.1573L18.6475 3.1573L20.0617 1.74308ZM15.3176 1.72387L16.7205 3.14926L15.3067 4.54081L13.9037 3.1384L15.3176 1.72387ZM13.8904 3.12507C13.8875 3.12207 13.8845 3.11908 13.8816 3.1161L16.71 0.287681C16.7213 0.298952 16.7325 0.310263 16.7436 0.321615L13.8904 3.12507ZM13.8816 3.1161C13.3472 2.58174 12.4808 2.58174 11.9465 3.1161L9.11804 0.287676C11.2145 -1.80878 14.6135 -1.80878 16.71 0.287675L13.8816 3.1161ZM11.9465 3.1161C11.4121 3.65045 11.4121 4.51679 11.9464 5.05115L9.11788 7.87946C7.02158 5.78299 7.02164 2.38408 9.11804 0.287675L11.9465 3.1161ZM11.95 7.87591L11.9499 7.87601L9.11425 5.05479L9.11435 5.05469L11.95 7.87591ZM11.9463 5.05118L11.9679 5.07285L9.13951 7.90128L9.11785 7.87961L11.9463 5.05118ZM11.968 7.90126L11.9484 7.92079L9.11996 5.0924L9.13949 5.07287L11.968 7.90126ZM11.9484 5.09238L16.7119 9.8559L13.8835 12.6843L9.11998 7.92081L11.9484 5.09238ZM13.8835 9.8559L18.6123 5.12708L21.4407 7.95551L16.7119 12.6843L13.8835 9.8559ZM18.6328 5.10688C18.6377 5.10212 18.6426 5.09729 18.6475 5.0924L21.4759 7.9208C21.4575 7.93925 21.4389 7.95755 21.4202 7.97571L18.6328 5.10688ZM18.6475 5.09239C19.1819 4.55803 19.1819 3.69166 18.6475 3.1573L21.4759 0.328871C23.5724 2.42533 23.5724 5.82436 21.4759 7.92082L18.6475 5.09239ZM18.6475 3.1573C18.1158 2.62562 17.2552 2.62297 16.7205 3.14926L13.9146 0.298485C16.0137 -1.76755 19.3897 -1.75739 21.4759 0.328871L18.6475 3.1573ZM13.9037 3.1384L13.9031 3.13787L16.7309 0.308811L16.7315 0.30934L13.9037 3.1384Z" fill="white" mask="url(#path-2-inside-1)"/>
</svg>
