<svg width="32" height="30" viewBox="0 0 32 30" fill="none" xmlns="http://www.w3.org/2000/svg">
<ellipse cx="16.2104" cy="15" rx="15.7188" ry="15" fill="#345F97"/>
<mask id="path-2-inside-1_74_58" fill="white">
<path fill-rule="evenodd" clip-rule="evenodd" d="M22.1042 16.4067C22.7556 15.3736 23.1303 14.1635 23.1303 12.87C23.1303 9.07579 19.9071 6 15.9311 6C11.9551 6 8.73193 9.07579 8.73193 12.87C8.73193 14.166 9.10802 15.3782 9.76172 16.4127L14.22 23.7815C14.9982 25.0678 16.8642 25.0678 17.6424 23.7815L22.1042 16.4067Z"/>
</mask>
<path d="M22.1042 16.4067L21.2583 15.8734L21.2534 15.8812L21.2486 15.8891L22.1042 16.4067ZM9.76172 16.4127L10.6173 15.895L10.6123 15.8867L10.6071 15.8785L9.76172 16.4127ZM14.22 23.7815L15.0756 23.2639L14.22 23.7815ZM17.6424 23.7815L16.7868 23.2639H16.7868L17.6424 23.7815ZM22.1303 12.87C22.1303 13.967 21.8133 14.9932 21.2583 15.8734L22.9501 16.9401C23.698 15.754 24.1303 14.3601 24.1303 12.87H22.1303ZM15.9311 7C19.3994 7 22.1303 9.67167 22.1303 12.87H24.1303C24.1303 8.47992 20.4148 5 15.9311 5V7ZM9.73193 12.87C9.73193 9.67167 12.4628 7 15.9311 7V5C11.4474 5 7.73193 8.47992 7.73193 12.87H9.73193ZM10.6071 15.8785C10.0501 14.9971 9.73193 13.9691 9.73193 12.87H7.73193C7.73193 14.3629 8.1659 15.7593 8.91637 16.9469L10.6071 15.8785ZM15.0756 23.2639L10.6173 15.895L8.90613 16.9303L13.3644 24.2992L15.0756 23.2639ZM16.7868 23.2639C16.3977 23.907 15.4647 23.907 15.0756 23.2639L13.3644 24.2992C14.5317 26.2286 17.3306 26.2286 18.498 24.2992L16.7868 23.2639ZM21.2486 15.8891L16.7868 23.2639L18.498 24.2992L22.9598 16.9244L21.2486 15.8891Z" fill="white" mask="url(#path-2-inside-1_74_58)"/>
<path d="M19.4307 13.2517C19.4307 15.0617 17.8862 16.5684 15.9312 16.5684C13.9761 16.5684 12.4316 15.0617 12.4316 13.2517C12.4316 11.4418 13.9761 9.93506 15.9312 9.93506C17.8862 9.93506 19.4307 11.4418 19.4307 13.2517Z" stroke="white"/>
</svg>
