<svg width="31" height="34" viewBox="0 0 31 34" fill="none" xmlns="http://www.w3.org/2000/svg">
<path d="M7.51557 15.1057L4.14751 15.1551C2.45173 16.8313 2.45172 21.6638 4.22814 23.4197C4.22814 23.4197 7.2378 23.4063 7.54773 23.37C7.85767 23.3337 8.22727 23.5183 8.37333 23.6151C10.3321 24.203 14.4922 25.3997 15.4621 25.4828C16.432 25.5659 19.3501 24.6783 20.6879 24.2241L28.2462 20.3221C28.6317 19.9894 29.3572 19.0696 29.1758 18.0527C28.9944 17.0359 27.8016 16.7261 27.2279 16.6983L23.1634 17.6773C22.7239 18.6133 21.3238 19.1581 20.6786 19.3135L17.8199 19.4382C16.7942 19.4553 14.727 19.3122 14.664 18.6027C14.6009 17.8933 15.329 17.8167 15.701 17.8671C17.0916 18.052 20.1433 18.2799 21.225 17.7123C22.5772 17.0027 22.398 15.5882 22.005 14.819C21.6906 14.2037 20.5949 14.1549 20.0864 14.2074C17.6864 14.0716 12.7116 13.7606 12.0127 13.6026C11.3137 13.4446 8.72335 14.5388 7.51557 15.1057Z" fill="white"/>
<mask id="path-2-inside-1_162_0" fill="white">
<path fill-rule="evenodd" clip-rule="evenodd" d="M9.82402 6.48668C9.81676 6.47963 9.80953 6.47255 9.80232 6.46543C8.47159 5.15001 8.47159 3.01731 9.80232 1.70189C11.133 0.386575 13.2903 0.386479 14.621 1.7016L14.6212 1.70147L14.6436 1.72365C15.9759 0.427666 18.1187 0.434131 19.4428 1.74305C20.7736 3.05846 20.7736 5.19117 19.4428 6.50658C19.4273 6.52193 19.4117 6.53709 19.3959 6.55208L14.6233 11.2697L9.80431 6.50616L9.82402 6.48668Z"/>
</mask>
<path d="M9.80232 6.46543L8.39637 7.88785L8.39632 7.8878L9.80232 6.46543ZM9.82402 6.48668L11.2175 5.05201L12.6817 6.47417L11.23 7.9091L9.82402 6.48668ZM9.80232 1.70189L11.2083 3.12427V3.12427L9.80232 1.70189ZM14.621 1.7016L16.0268 3.1242L14.621 4.51342L13.2152 3.12415L14.621 1.7016ZM14.6212 1.70147L13.2154 0.278878L14.6214 -1.11051L16.0272 0.279099L14.6212 1.70147ZM14.6436 1.72365L16.0382 3.15724L14.6324 4.52477L13.2376 3.14603L14.6436 1.72365ZM19.4428 1.74305L20.8488 0.32067L20.8488 0.32067L19.4428 1.74305ZM19.4428 6.50658L18.0368 5.08421L18.0368 5.0842L19.4428 6.50658ZM19.3959 6.55208L17.9899 5.1297L18.0034 5.1164L18.0171 5.10336L19.3959 6.55208ZM14.6233 11.2697L16.0293 12.692L14.6233 14.0818L13.2174 12.692L14.6233 11.2697ZM9.80431 6.50616L8.39831 7.92855L6.95932 6.50613L8.39834 5.08375L9.80431 6.50616ZM11.2083 5.043C11.2114 5.04607 11.2144 5.04907 11.2175 5.05201L8.43056 7.92135C8.41908 7.9102 8.40768 7.89903 8.39637 7.88785L11.2083 5.043ZM11.2083 3.12427C10.6696 3.6568 10.6696 4.51051 11.2083 5.04305L8.39632 7.8878C6.27359 5.78951 6.27359 2.37781 8.39632 0.279516L11.2083 3.12427ZM13.2152 3.12415C12.6636 2.57902 11.7599 2.57906 11.2083 3.12427L8.39632 0.279516C10.506 -1.80591 13.917 -1.80606 16.0269 0.279059L13.2152 3.12415ZM16.027 3.12407L16.0268 3.1242L13.2153 0.279008L13.2154 0.278878L16.027 3.12407ZM13.2376 3.14603L13.2152 3.12385L16.0272 0.279099L16.0496 0.30128L13.2376 3.14603ZM18.0368 3.16542C17.4881 2.62302 16.5904 2.62008 16.0382 3.15724L13.249 0.290065C15.3613 -1.76475 18.7492 -1.75476 20.8488 0.32067L18.0368 3.16542ZM18.0368 5.0842C18.5756 4.55167 18.5756 3.69796 18.0368 3.16542L20.8488 0.32067C22.9716 2.41896 22.9716 5.83066 20.8488 7.92896L18.0368 5.0842ZM18.0171 5.10336C18.0237 5.09707 18.0303 5.09069 18.0368 5.08421L20.8489 7.92894C20.8243 7.95317 20.7997 7.97712 20.7748 8.0008L18.0171 5.10336ZM13.2174 9.84728L17.9899 5.1297L20.8019 7.97447L16.0293 12.692L13.2174 9.84728ZM11.2103 5.08378L16.0293 9.84728L13.2174 12.692L8.39831 7.92855L11.2103 5.08378ZM11.23 7.9091L11.2103 7.92858L8.39834 5.08375L8.41805 5.06427L11.23 7.9091Z" fill="white" mask="url(#path-2-inside-1_162_0)"/>
</svg>
