<svg width="33" height="30" viewBox="0 0 33 30" fill="none" xmlns="http://www.w3.org/2000/svg">
<ellipse cx="16.4146" cy="15" rx="15.7188" ry="15" fill="#345F97"/>
<path d="M7.78337 8.36669C10.8344 11.6314 14.5411 12.2801 16.0131 12.1964L15.9872 11.7339C15.9194 10.5259 16.4351 9.3587 17.3738 8.59535C17.7131 8.31944 18.0977 8.10462 18.5106 7.96047L18.589 7.93308C19.9455 7.45949 21.4494 7.70372 22.5862 8.58221L23.0385 8.93173L25.4473 8.05278C25.3402 8.70571 24.4213 9.70604 23.9753 10.1246C24.1358 10.1748 25.3803 9.85253 25.9825 9.68511C25.7149 10.4887 24.8674 11.0663 24.3767 11.3174C24.3767 13.452 23.9753 17.4073 19.8938 20.4208C14.4092 24.4705 9.07694 22.5136 6.84665 20.9859C9.36241 21.4379 11.6418 20.1697 12.467 19.4791C10.2724 19.4791 9.14385 17.7212 8.85391 16.8423H10.259C7.6897 15.8378 7.2704 13.9124 7.38192 13.0753C7.43545 13.3265 8.38555 13.4311 8.85391 13.452C6.71283 11.6941 7.2481 9.32935 7.78337 8.36669Z" fill="white"/>
</svg>
