<svg width="21" height="34" viewBox="0 0 21 34" fill="none" xmlns="http://www.w3.org/2000/svg">
<ellipse rx="4.04257" ry="3.99601" transform="matrix(-1 0 0 1 13.972 4.83)" fill="white"/>
<path d="M18 12.5C18.1641 11.1271 15.8782 10.1301 13.9088 10.2855C11.5485 10.4718 10.7904 12.2283 10.0519 13.9379C9.20393 14.8705 7.34387 16.8599 6.68738 17.3572C5.86677 17.9789 6.35914 20.388 7.50799 20.6988C5.64794 20.9319 1.91142 22.2997 1.84577 25.9055C1.78012 29.5113 3.8973 31.2416 4.9641 31.6561C9.42275 32.5886 17.7374 34.3604 18 26.838M15.3038 13.4717L19.4846 20.0879C19.7855 20.5801 20.1282 22.3724 18.7496 22.9941C17.3709 23.6158 12.5958 26.9934 11.529 26.838C10.4622 26.6826 8.73891 26.0609 10.3801 24.8175C12.0214 23.5741 14.3464 22.3825 15.3038 21.9422C15.9603 21.6831 15.9603 21.2088 15.9603 19.5331C15.9603 18.5 14.2659 16.4765 13.5 15" stroke="white" stroke-width="2" stroke-linecap="round" stroke-linejoin="round"/>
</svg>
