<?xml version="1.0" encoding="utf-8"?>
<!-- Generator: Adobe Illustrator 24.0.2, SVG Export Plug-In . SVG Version: 6.00 Build 0)  -->
<svg version="1.1" id="Capa_1" xmlns="http://www.w3.org/2000/svg" xmlns:xlink="http://www.w3.org/1999/xlink" x="0px" y="0px"
	 viewBox="0 0 30 30" style="enable-background:new 0 0 30 30;" xml:space="preserve">
<style type="text/css">
	.st0{fill:url(#SVGID_1_);}
	.st1{fill:url(#SVGID_2_);}
	.st2{fill:none;stroke:#FFFFFF;stroke-width:2;}
	.st3{fill:#FFFFFF;}
</style>
<radialGradient id="SVGID_1_" cx="15" cy="15" r="27.403" fx="1.673" fy="38.944" gradientUnits="userSpaceOnUse">
	<stop  offset="0" style="stop-color:#FFDD55"/>
	<stop  offset="0.328" style="stop-color:#FF543F"/>
	<stop  offset="0.348" style="stop-color:#FC5245"/>
	<stop  offset="0.504" style="stop-color:#E64771"/>
	<stop  offset="0.643" style="stop-color:#D53E91"/>
	<stop  offset="0.761" style="stop-color:#CC39A4"/>
	<stop  offset="0.841" style="stop-color:#C837AB"/>
</radialGradient>
<circle class="st0" cx="15" cy="15" r="15"/>
<radialGradient id="SVGID_2_" cx="15" cy="15" r="15" fx="5.621" fy="3.2938" gradientUnits="userSpaceOnUse">
	<stop  offset="0" style="stop-color:#4168C9"/>
	<stop  offset="0.999" style="stop-color:#4168C9;stop-opacity:0"/>
</radialGradient>
<circle class="st1" cx="15" cy="15" r="15"/>
<path class="st2" d="M10.3,6.5h9.3c2.2,0,4,1.8,4,4v9.2c0,2.2-1.8,4-4,4h-9.3c-2.2,0-4-1.8-4-4v-9.2C6.3,8.3,8,6.5,10.3,6.5z"/>
<path class="st2" d="M15.1,12L15.1,12c1.7,0,3.1,1.4,3.1,3.1l0,0c0,1.7-1.4,3.1-3.1,3.1l0,0c-1.7,0-3.1-1.4-3.1-3.1l0,0
	C12,13.4,13.4,12,15.1,12z"/>
<path class="st3" d="M20,8.7L20,8.7c0.7,0,1.3,0.6,1.3,1.3l0,0c0,0.7-0.6,1.3-1.3,1.3l0,0c-0.7,0-1.3-0.6-1.3-1.3l0,0
	C18.8,9.3,19.3,8.7,20,8.7z"/>
</svg>
