<svg width="15" height="19" viewBox="0 0 15 19" fill="none" xmlns="http://www.w3.org/2000/svg">
<mask id="path-1-inside-1_74_61" fill="white">
<path fill-rule="evenodd" clip-rule="evenodd" d="M13.6245 10.4064C14.246 9.37336 14.6035 8.16341 14.6035 6.86998C14.6035 3.07579 11.5277 0 7.7335 0C3.93932 0 0.863525 3.07579 0.863525 6.86998C0.863525 8.16505 1.22187 9.37642 1.84483 10.4103L6.0015 17.6099C6.7713 18.9433 8.6958 18.9433 9.4656 17.6099L13.6245 10.4064Z"/>
</mask>
<path d="M13.6245 10.4064L12.7677 9.89092L12.763 9.89864L12.7585 9.90643L13.6245 10.4064ZM1.84483 10.4103L2.71085 9.91035L2.70618 9.90227L2.70137 9.89427L1.84483 10.4103ZM6.0015 17.6099L6.86753 17.1099L6.0015 17.6099ZM9.4656 17.6099L10.3316 18.1099L9.4656 17.6099ZM13.6035 6.86998C13.6035 7.97674 13.2981 9.00914 12.7677 9.89092L14.4814 10.9219C15.1939 9.73758 15.6035 8.35008 15.6035 6.86998H13.6035ZM7.7335 1C10.9754 1 13.6035 3.62808 13.6035 6.86998H15.6035C15.6035 2.52351 12.08 -1 7.7335 -1V1ZM1.86353 6.86998C1.86353 3.62808 4.4916 1 7.7335 1V-1C3.38703 -1 -0.136475 2.52351 -0.136475 6.86998H1.86353ZM2.70137 9.89427C2.16964 9.01175 1.86353 7.97814 1.86353 6.86998H-0.136475C-0.136475 8.35196 0.274107 9.74109 0.988282 10.9264L2.70137 9.89427ZM6.86753 17.1099L2.71085 9.91035L0.9788 10.9103L5.13548 18.1099L6.86753 17.1099ZM8.59958 17.1099C8.21468 17.7766 7.25243 17.7766 6.86753 17.1099L5.13548 18.1099C6.29018 20.1099 9.17693 20.1099 10.3316 18.1099L8.59958 17.1099ZM12.7585 9.90643L8.59958 17.1099L10.3316 18.1099L14.4906 10.9064L12.7585 9.90643Z" fill="white" mask="url(#path-1-inside-1_74_61)"/>
<circle cx="7.73353" cy="7.25171" r="3.31665" stroke="white"/>
</svg>
