<svg width="18" height="21" viewBox="0 0 18 21" fill="none" xmlns="http://www.w3.org/2000/svg">
<circle cx="8.76659" cy="3.77965" r="3.52428" fill="white"/>
<path d="M3.70965 20.2261L1.3576 18.6678C0.965595 18.3681 0.275663 17.493 0.65199 16.3902C1.1224 15.0116 1.82801 10.876 2.00441 10.6362C2.18082 10.3965 3.00403 8.47852 5.06207 8.47852C6.7085 8.47852 8.21773 8.47852 8.76654 8.47852" stroke="white"/>
<path d="M13.7304 20.2261L16.1516 18.6678C16.5552 18.3681 17.2654 17.493 16.878 16.3902C16.3937 15.0116 15.6674 10.876 15.4858 10.6362C15.3042 10.3965 14.4568 8.47852 12.3382 8.47852C10.6433 8.47852 9.33159 8.47852 8.76664 8.47852" stroke="white"/>
<path fill-rule="evenodd" clip-rule="evenodd" d="M7.71586 14.9618C7.71649 14.9414 7.71681 14.921 7.71681 14.9004C7.71681 13.8309 6.84977 12.9639 5.78023 12.9639C4.71069 12.9639 3.84366 13.8309 3.84366 14.9004C3.84366 15.97 4.71069 16.837 5.78023 16.837C6.06355 16.837 6.33266 16.7762 6.57521 16.6668C6.58312 16.6797 6.59452 16.7015 6.60971 16.7305C6.77073 17.0383 7.35825 18.1613 8.74569 18.1079C10.3192 18.0474 13.224 17.2607 13.7687 16.1713L10.0771 14.6584C9.63328 14.497 8.53993 14.3316 7.71688 14.961C7.71654 14.9612 7.7162 14.9615 7.71586 14.9618Z" fill="white"/>
</svg>
