<svg width="21" height="34" viewBox="0 0 21 34" fill="none" xmlns="http://www.w3.org/2000/svg">
<circle r="3.99601" transform="matrix(-1 0 0 1 13.4047 4.83)" fill="white"/>
<path d="M17.3167 14.404C17.4789 13.0311 15.2888 10.1299 13.342 10.2853C11.009 10.4716 10.2596 12.2281 9.52956 13.9377C8.69136 14.8703 6.85273 16.8597 6.20381 17.357C5.39264 17.9787 5.87934 20.3878 7.01497 20.6986C5.17634 20.9317 1.48285 22.2995 1.41796 25.9053C1.35307 29.5111 3.44586 31.2414 4.50037 31.6559C8.90767 32.5884 17.7872 32.5729 18.0467 25.0504M14.721 13.4715L18.8536 20.0877C19.151 20.5799 19.4898 22.3722 18.1271 22.9939C16.7643 23.6156 12.0442 26.9932 10.9897 26.8378C9.93514 26.6824 8.23171 26.0607 9.85403 24.8173C11.4763 23.5739 13.7746 22.3824 14.721 21.942C15.3699 21.683 16.4082 20.8385 15.3699 19.5329C14.3316 18.2274 12.5579 14.948 11.8008 13.4715" stroke="white" stroke-width="2"/>
</svg>
