<svg width="33" height="32" viewBox="0 0 33 32" fill="none" xmlns="http://www.w3.org/2000/svg">
<ellipse cx="16.538" cy="15.7665" rx="16.3393" ry="15.7665" fill="#E3B4A8"/>
<path d="M11.0916 9.50141C15.1329 5.87462 20.6631 7.18027 22.2938 10.9521C22.7454 12.3191 22.7192 14.6369 21.5848 15.7395L23.0737 18.8585L21.5848 19.874L20.6631 23.0656C20.4504 23.6459 19.4436 24.6324 17.118 23.936C14.7925 23.2397 12.7257 18.9895 12.1585 18.4575" stroke="white" stroke-width="2"/>
<mask id="path-3-inside-1_74_106" fill="white">
<path fill-rule="evenodd" clip-rule="evenodd" d="M18.8624 10.9445C18.2637 10.3668 17.293 10.3668 16.6942 10.9445C16.6924 10.9463 16.6906 10.948 16.6889 10.9497L16.6833 10.9444L16.6595 10.9673C16.0604 10.3933 15.0926 10.3946 14.4952 10.971C13.8965 11.5488 13.8965 12.4855 14.4952 13.0632L14.4953 13.0633L14.495 13.0635L16.6631 15.1556L18.8005 13.0932C18.8215 13.075 18.8422 13.0562 18.8624 13.0367C19.4611 12.4589 19.4611 11.5223 18.8624 10.9445Z"/>
</mask>
<path d="M16.6942 10.9445L18.083 12.3838L18.083 12.3837L16.6942 10.9445ZM18.8624 10.9445L20.2511 9.50531L20.2511 9.50531L18.8624 10.9445ZM16.6889 10.9497L15.3001 12.389L16.6957 13.7356L18.0846 12.3822L16.6889 10.9497ZM16.6833 10.9444L18.072 9.50515L16.6833 8.16506L15.2945 9.50514L16.6833 10.9444ZM16.6595 10.9673L15.2757 12.4114L16.6643 13.742L18.0482 12.4066L16.6595 10.9673ZM14.4952 10.971L13.1064 9.53183L13.1064 9.53183L14.4952 10.971ZM14.4952 13.0632L15.8846 11.6246L15.8839 11.624L14.4952 13.0632ZM14.4953 13.0633L15.8838 14.5027L17.375 13.0641L15.8847 11.6247L14.4953 13.0633ZM14.495 13.0635L13.1064 11.6241L11.6145 13.0633L13.1062 14.5027L14.495 13.0635ZM16.6631 15.1556L15.2744 16.5948L16.6631 17.9349L18.0519 16.5948L16.6631 15.1556ZM18.8005 13.0932L17.4923 11.5804L17.451 11.6161L17.4117 11.654L18.8005 13.0932ZM18.8624 13.0367L20.2511 14.4759L20.2511 14.4759L18.8624 13.0367ZM18.083 12.3837C17.9875 12.4759 17.8726 12.5112 17.7783 12.5112C17.684 12.5112 17.5691 12.4759 17.4736 12.3837L20.2511 9.50531C18.8775 8.17987 16.6791 8.17987 15.3055 9.50531L18.083 12.3837ZM18.0846 12.3822C18.0841 12.3827 18.0835 12.3832 18.083 12.3838L15.3055 9.50529C15.3014 9.50929 15.2972 9.51331 15.2931 9.51733L18.0846 12.3822ZM18.0776 9.51053L18.072 9.50515L15.2945 12.3836L15.3001 12.389L18.0776 9.51053ZM15.2945 9.50514L15.2707 9.52813L18.0482 12.4066L18.072 12.3836L15.2945 9.50514ZM18.0432 9.52333C16.6691 8.20654 14.4772 8.20909 13.1064 9.53183L15.8839 12.4103C15.7887 12.5022 15.674 12.5376 15.5799 12.5378C15.4859 12.5379 15.3713 12.5029 15.2757 12.4114L18.0432 9.52333ZM13.1064 9.53183C11.6927 10.896 11.6927 13.1383 13.1064 14.5024L15.8839 11.624C16.1002 11.8327 16.1002 12.2016 15.8839 12.4103L13.1064 9.53183ZM13.1058 14.5018L13.1058 14.5018L15.8847 11.6247L15.8846 11.6246L13.1058 14.5018ZM13.1067 11.6238L13.1064 11.6241L15.8836 14.5029L15.8838 14.5027L13.1067 11.6238ZM13.1062 14.5027L15.2744 16.5948L18.0519 13.7164L15.8838 11.6243L13.1062 14.5027ZM18.0519 16.5948L20.1893 14.5324L17.4117 11.654L15.2744 13.7164L18.0519 16.5948ZM17.4736 11.5974C17.4796 11.5916 17.4859 11.5859 17.4923 11.5804L20.1087 14.606C20.1572 14.5641 20.2047 14.5207 20.2511 14.4759L17.4736 11.5974ZM17.4736 12.3837C17.2573 12.1751 17.2573 11.8061 17.4736 11.5974L20.2511 14.4759C21.6648 13.1117 21.6648 10.8695 20.2511 9.50531L17.4736 12.3837Z" fill="white" mask="url(#path-3-inside-1_74_106)"/>
</svg>
