<svg width="18" height="22" viewBox="0 0 18 22" fill="none" xmlns="http://www.w3.org/2000/svg">
<path d="M0.533813 15.0904L2.02 14.1074C2.22182 13.9253 2.62548 13.3756 2.62548 12.6329C2.62548 11.8902 3.01078 10.1754 3.39609 7.554C5.48775 3.56737 5.796 2.7045 7.02898 1.65596C8.26196 0.607424 8.84542 1.87441 8.29499 2.52975L7.35924 4.8466M6.64367 9.02851L6.53358 5.75183C6.4235 4.71421 8.01977 4.38654 8.29499 5.75183C8.29499 6.75668 8.47846 9.22876 8.5702 10.3392C8.66194 12.5783 8.68029 13.8234 6.69872 15.0904C4.71714 16.3574 2.64382 20.1875 2.02 20.8792" stroke="white"/>
<path d="M16.887 15.1089L15.4008 14.1259C15.199 13.9439 14.7953 13.3941 14.7953 12.6514C14.7953 11.9087 14.41 10.1939 14.0247 7.57256C11.933 3.58592 11.6248 2.72306 10.3918 1.67452C9.15882 0.625979 8.57535 1.89297 9.12579 2.5483L10.0615 4.86515M10.7771 9.04707L10.8872 5.77038C10.9973 4.73276 9.40101 4.40509 9.12579 5.77038C9.12579 6.77523 8.94231 9.24731 8.85057 10.3577C8.75883 12.5968 8.74048 13.842 10.7221 15.1089C12.7036 16.3759 14.777 20.206 15.4008 20.8978" stroke="white"/>
</svg>
