<svg width="33" height="32" viewBox="0 0 33 32" fill="none" xmlns="http://www.w3.org/2000/svg">
<ellipse cx="16.586" cy="15.7665" rx="16.3393" ry="15.7665" fill="#E3B4A8"/>
<path d="M8.0542 19.0904L9.59437 18.1074C9.80353 17.9253 10.2218 17.3756 10.2218 16.6329C10.2218 15.8902 10.6211 14.1754 11.0205 11.554C13.1881 7.56737 13.5075 6.7045 14.7853 5.65596C16.0631 4.60742 16.6677 5.87441 16.0973 6.52975L15.1276 8.8466M14.386 13.0285L14.2719 9.75183C14.1578 8.71421 15.8121 8.38654 16.0973 9.75183C16.0973 10.7567 16.2874 13.2288 16.3825 14.3392C16.4776 16.5783 16.4966 17.8234 14.443 19.0904C12.3895 20.3574 10.2409 24.1875 9.59437 24.8792" stroke="white"/>
<path d="M25.0013 19.1089L23.4612 18.1259C23.252 17.9439 22.8337 17.3941 22.8337 16.6514C22.8337 15.9087 22.4344 14.1939 22.0351 11.5726C19.8674 7.58592 19.548 6.72306 18.2702 5.67452C16.9925 4.62598 16.3878 5.89297 16.9582 6.5483L17.928 8.86515M18.6695 13.0471L18.7836 9.77038C18.8977 8.73276 17.2435 8.40509 16.9582 9.77038C16.9582 10.7752 16.7681 13.2473 16.673 14.3577C16.5779 16.5968 16.5589 17.842 18.6125 19.1089C20.6661 20.3759 22.8147 24.206 23.4612 24.8978" stroke="white"/>
</svg>
