<?xml version="1.0" encoding="utf-8"?>
<!-- Generator: Adobe Illustrator 24.0.2, SVG Export Plug-In . SVG Version: 6.00 Build 0)  -->
<svg version="1.1" id="Capa_1" xmlns="http://www.w3.org/2000/svg" xmlns:xlink="http://www.w3.org/1999/xlink" x="0px" y="0px"
	 viewBox="0 0 30 30" style="enable-background:new 0 0 30 30;" xml:space="preserve">
<style type="text/css">
	.st0{fill:#25D366;}
	.st1{fill:none;stroke:#FFFFFF;stroke-width:2;stroke-linecap:round;}
	.st2{fill-rule:evenodd;clip-rule:evenodd;fill:#FFFFFF;}
</style>
<circle class="st0" cx="15" cy="15" r="15"/>
<path class="st1" d="M6.5,23.6l0.9-3.5l0.1-0.4l-0.2-0.4c-0.8-1.3-1.2-2.9-1.2-4.4C6.1,10,10.1,6,15,6 M6.5,23.6l3.6-0.9l0.4-0.1
	l0.3,0.2c1.3,0.7,2.8,1.1,4.3,1.1 M21.4,8.7L21.4,8.7c-1.7-1.7-3.9-2.6-6.3-2.6 M21.4,8.7C23,10.4,24,12.6,24,15 M24,15
	c0,4.9-4,8.9-8.9,8.9l0,0l0,0"/>
<path class="st2" d="M12.5,10.7c-0.2-0.4-0.4-0.4-0.6-0.4c-0.1,0-0.3,0-0.5,0s-0.4,0.1-0.7,0.3c-0.2,0.3-0.9,0.9-0.9,2.1
	c0,1.3,0.9,2.5,1,2.7s1.8,2.8,4.4,3.9c2.2,0.9,2.6,0.7,3.1,0.6c0.5,0,1.5-0.6,1.7-1.2s0.2-1.1,0.1-1.2s-0.2-0.2-0.5-0.3
	c-0.3-0.1-1.5-0.7-1.8-0.8c-0.2-0.1-0.4-0.1-0.6,0.1c-0.2,0.3-0.7,0.8-0.8,1c-0.1,0.2-0.3,0.2-0.6,0.1c-0.3-0.1-1.1-0.4-2.1-1.3
	c-0.8-0.7-1.3-1.5-1.4-1.8c-0.1-0.3,0-0.4,0.1-0.5c0.2-0.3,0.6-0.7,0.6-0.9c0.1-0.2,0-0.3,0-0.4C13.2,12.4,12.7,11.2,12.5,10.7
	L12.5,10.7z"/>
</svg>
