<svg width="30" height="30" viewBox="0 0 30 30" fill="none" xmlns="http://www.w3.org/2000/svg">
<circle cx="15" cy="15" r="15" fill="#345F97"/>
<path d="M24.8008 11C24.8008 11 24.6055 9.62109 24.0039 9.01563C23.2422 8.21875 22.3906 8.21484 22 8.16797C19.2031 7.96484 15.0039 7.96484 15.0039 7.96484H14.9961C14.9961 7.96484 10.7969 7.96484 8 8.16797C7.60938 8.21484 6.75781 8.21875 5.99609 9.01563C5.39453 9.62109 5.20312 11 5.20312 11C5.20312 11 5 12.6211 5 14.2383V15.7539C5 17.3711 5.19922 18.9922 5.19922 18.9922C5.19922 18.9922 5.39453 20.3711 5.99219 20.9766C6.75391 21.7734 7.75391 21.7461 8.19922 21.832C9.80078 21.9844 15 22.0313 15 22.0313C15 22.0313 19.2031 22.0234 22 21.8242C22.3906 21.7773 23.2422 21.7734 24.0039 20.9766C24.6055 20.3711 24.8008 18.9922 24.8008 18.9922C24.8008 18.9922 25 17.375 25 15.7539V14.2383C25 12.6211 24.8008 11 24.8008 11ZM12.9336 17.5938V11.9727L18.3359 14.793L12.9336 17.5938Z" fill="white"/>
</svg>
