<?xml version="1.0" encoding="utf-8"?>
<!-- Generator: Adobe Illustrator 24.0.2, SVG Export Plug-In . SVG Version: 6.00 Build 0)  -->
<svg version="1.1" id="Capa_1" xmlns="http://www.w3.org/2000/svg" xmlns:xlink="http://www.w3.org/1999/xlink" x="0px" y="0px"
	 viewBox="0 0 30 30" style="enable-background:new 0 0 30 30;" xml:space="preserve">
<style type="text/css">
	.st0{fill:#C4302B;}
	.st1{fill:#FFFFFF;}
</style>
<circle class="st0" cx="15" cy="15" r="15"/>
<path class="st1" d="M23.3,11.6c0,0-0.2-1.2-0.7-1.7C22,9.2,21.3,9.2,21,9.2C18.6,9,15,9,15,9h0c0,0-3.6,0-6,0.2
	c-0.3,0-1.1,0-1.7,0.7c-0.5,0.5-0.7,1.7-0.7,1.7S6.5,13,6.5,14.4v1.3c0,1.4,0.2,2.8,0.2,2.8s0.2,1.2,0.7,1.7
	c0.6,0.7,1.5,0.7,1.9,0.7C10.6,20.9,15,21,15,21s3.6,0,6-0.2c0.3,0,1.1,0,1.7-0.7c0.5-0.5,0.7-1.7,0.7-1.7s0.2-1.4,0.2-2.8v-1.3
	C23.5,13,23.3,11.6,23.3,11.6z M13.2,17.2v-4.8l4.6,2.4L13.2,17.2z"/>
</svg>
